<svg xmlns="http://www.w3.org/2000/svg" xmlns:xlink="http://www.w3.org/1999/xlink" x="0" y="0" width="18" height="18" viewBox="0 0 18 18" xml:space="preserve" class="svg-icon svg-bubble-chat">
	<path class="icon-fill" fill="#F4F4F4" d="M11.4,16.4H9c-4.1,0-7.4-3.3-7.4-7.4S4.9,1.6,9,1.6s7.4,3.3,7.4,7.4v2h-1.1V9c0-3.5-2.8-6.3-6.3-6.3
		C5.5,2.7,2.7,5.5,2.7,9s2.8,6.3,6.3,6.3h2.4V16.4z"/>
	<polygon class="icon-fill" fill="#F4F4F4" points="16.4,16.4 12.5,16.4 12.5,15.3 15.3,15.3 15.3,12.2 16.4,12.2"/>
	<circle class="icon-fill" fill="#F4F4F4" cx="6.7" cy="9.1" r="0.6"/>
	<circle class="icon-fill" fill="#F4F4F4" cx="9" cy="9.1" r="0.6"/>
	<circle class="icon-fill" fill="#F4F4F4" cx="11.3" cy="9.1" r="0.6"/>
</svg>
