<svg xmlns="http://www.w3.org/2000/svg" xmlns:xlink="http://www.w3.org/1999/xlink" x="0" y="0" width="18" height="18" viewBox="0 0 18 18" xml:space="preserve" class="svg-icon svg-marker">
	<path
		class="icon-fill"
		fill="#F4F4F4"
		d="M12.7,14.3l-0.8-0.7l1.5-1.6c2.5-2.5,2.5-6.5,0-9C12.3,1.8,10.7,1.1,9,1.1S5.7,1.8,4.5,3
	C3.3,4.2,2.7,5.8,2.7,7.5c0,1.7,0.7,3.3,1.9,4.5l1.6,1.6l-0.8,0.8l-1.6-1.6c-1.4-1.4-2.2-3.3-2.2-5.2c0-2,0.8-3.8,2.2-5.2
	C5.2,0.8,7,0.1,9,0.1c2,0,3.8,0.8,5.2,2.2c2.9,2.9,2.9,7.6,0,10.5L12.7,14.3z"/>
	<polygon class="icon-fill" fill="#F4F4F4" points="9,17.9 6.2,15.1 7,14.4 9,16.4 11.1,14.4 11.8,15.1"/>
	<path class="icon-fill" fill="#F4F4F4" d="M9,10.2c-1.2,0-2.3-1-2.3-2.3s1-2.3,2.3-2.3c1.2,0,2.3,1,2.3,2.3S10.2,10.2,9,10.2z M9,6.7
	c-0.6,0-1.2,0.5-1.2,1.2S8.3,9.1,9,9.1c0.7,0,1.2-0.5,1.2-1.2S9.6,6.7,9,6.7z"/>
</svg>
