<svg xmlns="http://www.w3.org/2000/svg" xmlns:xlink="http://www.w3.org/1999/xlink" x="0" y="0" width="110" height="110" viewBox="0 0 110 110" xml:space="preserve" class="svg-icon svg-forms">
	<g class="chrome">
		<polyline class="chrome--rect" fill="none" stroke="#031DD6" stroke-width="2" stroke-miterlimit="10" points="95,83 95,24 5.1,24 5.1,95.3 83.7,95.3 "/>
		<line class="chrome--line" fill="none" stroke="#031DD6" stroke-width="2" stroke-miterlimit="10" x1="5.1" y1="33.1" x2="95" y2="33.1"/>
		<polyline class="chrome--arr" fill="none" stroke="#031DD6" stroke-width="2" stroke-miterlimit="10" points="95,86.2 95,95.3 86.7,95.3 "/>
	</g>
	<g class="content">
		<rect class="content--cols" x="26.7" y="42.7" fill="none" stroke="#031DD6" stroke-width="2" stroke-miterlimit="10" width="47.2" height="22.9"/>
		<line class="content--row" fill="none" stroke="#031DD6" stroke-width="2" stroke-miterlimit="10" x1="26.7" y1="54.1" x2="73.9" y2="54.1"/>
		<line class="content--l-col-line" fill="none" stroke="#031DD6" stroke-width="2" stroke-miterlimit="10" x1="41.6" y1="42.7" x2="41.6" y2="65.5"/>
		<line class="content--r-col-line" fill="none" stroke="#031DD6" stroke-width="2" stroke-miterlimit="10" x1="59" y1="42.7" x2="59" y2="65.5"/>
		<rect class="content--col-fill" x="26.7" y="42.7" fill="#031DD6" width="14.9" height="11.4"/>
		<line class="content--t-line" fill="none" stroke="#031DD6" stroke-width="2" stroke-miterlimit="10" x1="26.2" y1="73.7" x2="73.9" y2="73.7"></line>
		<line class="content--b-line" fill="none" stroke="#031DD6" stroke-width="2" stroke-miterlimit="10" x1="26.2" y1="80.1" x2="73.9" y2="80.1"/>
	</g>
	<g class="cursor">
		<polygon class="cursor--fill" fill="#FFFFFF" points="80.9,72.6 84.5,105.9 91.4,96.4 97.4,107 101.4,104.7 95.2,94.3 106.9,93 		"/>
		<polygon class="cursor--stroke" fill="none" stroke="#031DD6" stroke-width="2" stroke-linecap="round" stroke-linejoin="round" stroke-miterlimit="10" points="
		80.9,72.6 84.5,105.9 91.4,96.4 97.4,107 101.4,104.7 95.2,94.3 106.9,93 		"/>
	</g>
</svg>
