<svg xmlns="http://www.w3.org/2000/svg" xmlns:xlink="http://www.w3.org/1999/xlink" x="0" y="0" width="53" height="53" viewBox="0 0 53 53" xml:space="preserve" class="svg-icon svg-people">
	<polygon class="icon-fill" fill="#757575" points="27,26.3 21.1,20.4 23.2,18.3 27,22.1 30.7,18.3 32.8,20.4"/>
	<path class="icon-fill" fill="#757575" d="M26.6,12.6c-3.5,0-6.3-2.8-6.3-6.3c0-3.5,2.8-6.3,6.3-6.3c3.5,0,6.3,2.8,6.3,6.3
			C32.9,9.7,30.1,12.6,26.6,12.6z M26.6,3c-1.8,0-3.3,1.5-3.3,3.3c0,1.8,1.5,3.3,3.3,3.3s3.3-1.5,3.3-3.3C29.9,4.5,28.4,3,26.6,3z"/>
	<path class="icon-fill" fill="#757575" d="M17,24.5h-3c0-8.4,5-12.6,5.3-12.7l1.9,2.3L20.2,13l0.9,1.2C20.9,14.3,17,17.6,17,24.5z"/>
	<path class="icon-fill" fill="#757575" d="M39.4,24.5h-3c0-7.1-4.3-11.2-4.4-11.2l2-2.2C34.3,11.3,39.4,16.2,39.4,24.5z"/>
	<polygon class="icon-fill" fill="#757575" points="13,53 7.1,47.1 9.2,45 13,48.8 16.7,45 18.9,47.1"/>
	<path
		class="icon-fill"
		fill="#757575"
		d="M12.6,39.3c-3.5,0-6.3-2.8-6.3-6.3c0-3.5,2.8-6.3,6.3-6.3c3.5,0,6.3,2.8,6.3,6.3
			C18.9,36.5,16.1,39.3,12.6,39.3z M12.6,29.7c-1.8,0-3.3,1.5-3.3,3.3c0,1.8,1.5,3.3,3.3,3.3c1.8,0,3.3-1.5,3.3-3.3
			C15.9,31.2,14.4,29.7,12.6,29.7z"/>
	<path class="icon-fill" fill="#757575" d="M3,51.2H0c0-8.4,5-12.5,5.3-12.7l1.9,2.3l-0.9-1.2l0.9,1.2C7,41,3,44.3,3,51.2z"/>
	<path class="icon-fill" fill="#757575" d="M25.5,51.2h-3c0-7.1-4.3-11.2-4.4-11.2l2-2.2C20.4,38,25.5,42.9,25.5,51.2z"/>
	<polygon class="icon-fill" fill="#757575" points="40.5,53 34.7,47.1 36.8,45 40.5,48.8 44.3,45 46.4,47.1"/>
	<path
		class="icon-fill"
		fill="#757575"
		d="M40.2,39.3c-3.5,0-6.3-2.8-6.3-6.3c0-3.5,2.8-6.3,6.3-6.3c3.5,0,6.3,2.8,6.3,6.3
			C46.4,36.5,43.6,39.3,40.2,39.3z M40.2,29.7c-1.8,0-3.3,1.5-3.3,3.3c0,1.8,1.5,3.3,3.3,3.3c1.8,0,3.3-1.5,3.3-3.3
			C43.4,31.2,42,29.7,40.2,29.7z"/>
	<path class="icon-fill" fill="#757575" d="M30.5,51.2h-3c0-8.4,5-12.6,5.3-12.7l1.9,2.3l-0.9-1.2l0.9,1.2C34.5,41,30.5,44.3,30.5,51.2z"/>
	<path class="icon-fill" fill="#757575" d="M53,51.2h-3c0-7.1-4.3-11.2-4.4-11.2l2-2.2C47.9,38,53,42.9,53,51.2z"/>
</svg>
